<svg width="31" height="30" viewBox="0 0 31 30" fill="none" xmlns="http://www.w3.org/2000/svg">
<path d="M15.5 30C23.7843 30 30.5 23.2843 30.5 15C30.5 6.71573 23.7843 0 15.5 0C7.21573 0 0.5 6.71573 0.5 15C0.5 23.2843 7.21573 30 15.5 30Z" fill="#FF4500"/>
<path d="M28 15.1846C28 13.6145 26.7682 12.3674 25.267 12.3674C24.5579 12.3664 23.8758 12.6477 23.363 13.1526C21.4814 11.7669 18.905 10.8665 16.0377 10.7511L17.292 4.70092L21.3691 5.60131C21.4141 6.66362 22.2651 7.51815 23.3183 7.51815C24.3934 7.51815 25.267 6.61776 25.267 5.50885C25.267 4.40054 24.3936 3.5 23.3183 3.5C22.5567 3.5 21.8843 3.96185 21.5708 4.63161L17.0235 3.63861C16.889 3.61531 16.7546 3.63861 16.6649 3.70792C16.5528 3.77723 16.4858 3.89254 16.4636 4.03115L15.0743 10.7739C12.1622 10.8665 9.54111 11.7669 7.63711 13.1758C7.12428 12.6709 6.44212 12.3896 5.73297 12.3907C4.20963 12.3907 3 13.6605 3 15.2079C3 16.3624 3.6719 17.3321 4.61304 17.7712C4.56733 18.0536 4.54484 18.3394 4.5458 18.6256C4.5458 22.9665 9.45185 26.5 15.5001 26.5C21.5486 26.5 26.4546 22.9898 26.4546 18.6256C26.4547 18.3394 26.4322 18.0537 26.3874 17.7712C27.3281 17.3321 28 16.3391 28 15.1846ZM9.22754 17.1935C9.22754 16.0852 10.101 15.1846 11.1767 15.1846C12.2519 15.1846 13.1255 16.085 13.1255 17.1935C13.1255 18.3019 12.2521 19.2028 11.1767 19.2028C10.1011 19.2255 9.22754 18.3019 9.22754 17.1935ZM20.1373 22.5279C18.7932 23.9135 16.2393 24.006 15.5001 24.006C14.7386 24.006 12.1848 23.8902 10.8627 22.5279C10.6615 22.3201 10.6615 21.9967 10.8627 21.7889C11.0644 21.5815 11.378 21.5815 11.5797 21.7889C12.4312 22.6666 14.2233 22.9665 15.5001 22.9665C16.777 22.9665 18.5915 22.6665 19.4203 21.7889C19.622 21.5815 19.9356 21.5815 20.1373 21.7889C20.3164 21.9967 20.3164 22.3201 20.1373 22.5279ZM19.7786 19.2256C18.7033 19.2256 17.8299 18.3252 17.8299 17.2168C17.8299 16.1083 18.7033 15.2079 19.7786 15.2079C20.8542 15.2079 21.7277 16.1083 21.7277 17.2168C21.7277 18.3018 20.8542 19.2256 19.7786 19.2256Z" fill="white"/>
</svg>
