<svg width="27" height="26" viewBox="0 0 27 26" fill="none" xmlns="http://www.w3.org/2000/svg">
<path d="M13.5 0C6.31953 0 0.5 5.40313 0.5 12.0714C0.5 14.95 1.58672 17.5848 3.39453 19.6567C2.75977 22.5817 0.637109 25.1875 0.611719 25.2165C0.5 25.35 0.469531 25.5473 0.535547 25.7214C0.601562 25.8955 0.74375 26 0.90625 26C4.27305 26 6.79688 24.1545 8.04609 23.017C9.70664 23.7308 11.55 24.1429 13.5 24.1429C20.6805 24.1429 26.5 18.7397 26.5 12.0714C26.5 5.40313 20.6805 0 13.5 0ZM7.01016 15.7857H6.39062C6.16719 15.7857 5.98438 15.5768 5.98438 15.3214V14.3929C5.98438 14.1375 6.16719 13.9286 6.39062 13.9286H7.01523C7.31992 13.9286 7.54336 13.7254 7.54336 13.5455C7.54336 13.4701 7.50273 13.3888 7.43672 13.325L6.32461 12.2339C5.89297 11.8161 5.64922 11.2183 5.64922 10.6031C5.64922 9.36696 6.61406 8.36295 7.80234 8.36295H8.42187C8.64531 8.36295 8.82812 8.57188 8.82812 8.82723V9.7558C8.82812 10.0112 8.64531 10.2201 8.42187 10.2201H7.79727C7.49258 10.2201 7.26914 10.4232 7.26914 10.6031C7.26914 10.6786 7.30977 10.7598 7.37578 10.8237L8.48789 11.9147C8.91953 12.3326 9.16328 12.9304 9.16328 13.5455C9.16836 14.7817 8.19844 15.7857 7.01016 15.7857ZM16.75 15.3214C16.75 15.5768 16.5672 15.7857 16.3437 15.7857H15.5312C15.3078 15.7857 15.125 15.5768 15.125 15.3214V11.3634L13.8656 14.6018C13.7184 14.9442 13.2867 14.9442 13.1395 14.6018L11.875 11.3634V15.3214C11.875 15.5768 11.6922 15.7857 11.4688 15.7857H10.6562C10.4328 15.7857 10.25 15.5768 10.25 15.3214V9.28571C10.25 8.775 10.6156 8.35714 11.0625 8.35714H11.875C12.1848 8.35714 12.4641 8.55446 12.6012 8.86786L13.5 10.9223L14.3988 8.86786C14.5359 8.55446 14.8203 8.35714 15.125 8.35714H15.9375C16.3844 8.35714 16.75 8.775 16.75 9.28571V15.3214ZM19.2027 15.7857H18.5781C18.3547 15.7857 18.1719 15.5768 18.1719 15.3214V14.3929C18.1719 14.1375 18.3547 13.9286 18.5781 13.9286H19.2027C19.5074 13.9286 19.7309 13.7254 19.7309 13.5455C19.7309 13.4701 19.6902 13.3888 19.6242 13.325L18.5121 12.2339C18.0805 11.8161 17.8367 11.2183 17.8367 10.6031C17.8367 9.36696 18.8016 8.36295 19.9898 8.36295H20.6094C20.8328 8.36295 21.0156 8.57188 21.0156 8.82723V9.7558C21.0156 10.0112 20.8328 10.2201 20.6094 10.2201H19.9848C19.6801 10.2201 19.4566 10.4232 19.4566 10.6031C19.4566 10.6786 19.4973 10.7598 19.5633 10.8237L20.6754 11.9147C21.107 12.3326 21.3508 12.9304 21.3508 13.5455C21.3559 14.7817 20.391 15.7857 19.2027 15.7857Z" fill="#009688"/>
</svg>
