<svg width="27" height="24" viewBox="0 0 27 24" fill="none" xmlns="http://www.w3.org/2000/svg">
<path d="M4.21429 0C2.16562 0 0.5 1.5375 0.5 3.42857V20.5714C0.5 22.4625 2.16562 24 4.21429 24H22.7857C24.8344 24 26.5 22.4625 26.5 20.5714V3.42857C26.5 1.5375 24.8344 0 22.7857 0H4.21429ZM21.4567 4.5L15.4326 10.8536L22.5188 19.5H16.9705L12.6295 14.2554L7.6558 19.5H4.89911L11.3411 12.7018L4.54509 4.5H10.2326L14.1616 9.29464L18.7 4.5H21.4567ZM19.2629 17.9786L9.40268 5.94107H7.76027L17.7308 17.9786H19.2571H19.2629Z" fill="black"/>
</svg>
