<svg width="24" height="24" viewBox="0 0 24 24" fill="none" xmlns="http://www.w3.org/2000/svg">
<path d="M18.2826 22.349C17.8431 22.349 17.4866 21.9925 17.4866 21.5529C17.4866 21.1133 17.8431 20.7568 18.2826 20.7568C18.7224 20.7568 19.0787 21.1133 19.0787 21.5529C19.0787 21.9925 18.7224 22.349 18.2826 22.349Z" stroke="white" stroke-width="1.71" stroke-linecap="round" stroke-linejoin="round"/>
<path d="M7.93377 22.349C7.49411 22.349 7.1377 21.9925 7.1377 21.5529C7.1377 21.1133 7.49411 20.7568 7.93377 20.7568C8.37344 20.7568 8.72984 21.1133 8.72984 21.5529C8.72984 21.9925 8.37344 22.349 7.93377 22.349Z" stroke="white" stroke-width="1.71" stroke-linecap="round" stroke-linejoin="round"/>
<path d="M16.1468 11.2041H11.3704" stroke="white" stroke-width="1.71" stroke-linecap="round" stroke-linejoin="round"/>
<path d="M13.7585 8.81567V13.5921" stroke="white" stroke-width="1.71" stroke-linecap="round" stroke-linejoin="round"/>
<path d="M1.65112 1.65112H5.63148L6.05047 5.63148M6.05047 5.63148L7.07358 15.351C7.15887 16.1613 7.84217 16.7765 8.65697 16.7765H18.7176C19.4483 16.7765 20.0851 16.2793 20.2623 15.5705L22.2525 7.60978C22.5037 6.6049 21.7436 5.63148 20.7078 5.63148H6.05047Z" stroke="white" stroke-width="2" stroke-linecap="round" stroke-linejoin="round"/>
</svg>
