<svg width="159" height="162" viewBox="0 0 159 162" fill="none" xmlns="http://www.w3.org/2000/svg">
<path d="M87.2149 48.6633C87.2149 45.2461 88.7579 42.525 90.2391 39.9305C92.2141 36.5133 94.3125 32.9063 92.893 27.9703C91.4118 23.4773 88.6344 21.2625 86.2274 19.3008C82.9563 16.643 80.5493 14.7445 81.7836 7.59375L81.9071 6.96094L78.3274 6.32812L78.204 6.96094C76.5993 16.3898 80.5493 19.4906 84.0055 22.275C86.2274 24.0469 88.3876 25.7555 89.4368 29.1727C90.4243 32.4633 88.943 34.9313 87.1532 38.0953C85.4868 41.0063 83.5735 44.2969 83.5735 48.7266C65.5516 48.7266 47.1594 49.4859 47.1594 115.109C47.1594 144.661 70.3657 155.735 84.9313 155.735C99.5586 155.735 122.703 144.724 122.703 115.109C122.765 49.4859 104.002 48.7266 87.2149 48.6633ZM86.7829 103.718V95.7445C89.0047 95.3016 90.6711 93.2766 90.6711 90.9352V66.7617C90.6711 64.4203 89.0047 62.3953 86.7829 61.9523V52.3336C101.657 52.3336 115.544 52.9664 118.568 95.9344C108.384 100.87 97.7071 103.465 86.7829 103.718ZM87.0297 90.8719C87.0297 91.568 86.4743 92.0742 85.8571 92.0742H84.0672C83.3883 92.0742 82.8946 91.5047 82.8946 90.8719V66.6984C82.8946 66.0024 83.45 65.4961 84.0672 65.4961H85.8571C86.536 65.4961 87.0297 66.0656 87.0297 66.6984V90.8719ZM81.8454 54.4219V61.8891C79.8086 62.332 78.2657 64.1672 78.2657 66.382V91.125C78.2657 93.2766 79.8086 95.175 81.8454 95.618V101.693C66.6626 101.313 55.5532 96.1242 52.6524 94.6688C55.4297 55.0547 68.2055 54.4219 81.8454 54.4219Z" stroke="white"/>
<path d="M67.2178 46.3219L67.835 46.1953L67.0327 42.5883L66.4155 42.7148C44.9374 47.6508 42.9624 68.5969 42.9624 68.85L42.9006 69.4828L46.542 69.7359L46.6038 69.1031C46.6038 68.9133 48.3319 50.6883 67.2178 46.3219Z" stroke="white"/>
<path d="M60.5523 39.4875L61.1695 39.3609L60.3671 35.7539L59.75 35.8805C38.2718 40.8164 36.2968 61.7625 36.2968 62.0156L36.2351 62.6484L39.8148 62.9648L39.8765 62.332C39.9382 62.0789 41.6046 43.8539 60.5523 39.4875Z" stroke="white"/>
</svg>
